<mxfile host="app.diagrams.net" agent="Mozilla/5.0 (Windows NT 10.0; Win64; x64) AppleWebKit/537.36 (KHTML, like Gecko) Chrome/126.0.0.0 Safari/537.36 Edg/126.0.0.0" version="24.7.5">
  <diagram name="第 1 页" id="pL91bi9Go7zP24jj9Hu1">
    <mxGraphModel dx="960" dy="996" grid="1" gridSize="10" guides="1" tooltips="1" connect="1" arrows="1" fold="1" page="1" pageScale="1" pageWidth="827" pageHeight="1169" math="0" shadow="0">
      <root>
        <mxCell id="0" />
        <mxCell id="1" parent="0" />
        <mxCell id="Cx_R8YavA6_PTmJeuPWY-49" style="edgeStyle=orthogonalEdgeStyle;rounded=0;orthogonalLoop=1;jettySize=auto;html=1;exitX=1;exitY=0.75;exitDx=0;exitDy=0;entryX=0;entryY=0.25;entryDx=0;entryDy=0;" edge="1" parent="1" source="4CxefuWo_c8KhToSePK6-2" target="Cx_R8YavA6_PTmJeuPWY-48">
          <mxGeometry relative="1" as="geometry" />
        </mxCell>
        <mxCell id="Cx_R8YavA6_PTmJeuPWY-50" value="jump_flag_o" style="edgeLabel;html=1;align=center;verticalAlign=middle;resizable=0;points=[];" vertex="1" connectable="0" parent="Cx_R8YavA6_PTmJeuPWY-49">
          <mxGeometry x="-0.0666" y="1" relative="1" as="geometry">
            <mxPoint y="-9" as="offset" />
          </mxGeometry>
        </mxCell>
        <mxCell id="4CxefuWo_c8KhToSePK6-2" value="inst_execute" style="rounded=0;whiteSpace=wrap;html=1;" parent="1" vertex="1">
          <mxGeometry x="510" y="480" width="180" height="210" as="geometry" />
        </mxCell>
        <mxCell id="keUReCoGRjk8XPbMsIGI-51" style="edgeStyle=orthogonalEdgeStyle;rounded=0;orthogonalLoop=1;jettySize=auto;html=1;exitX=1;exitY=0.5;exitDx=0;exitDy=0;entryX=0;entryY=0.5;entryDx=0;entryDy=0;fillColor=#dae8fc;strokeColor=#6c8ebf;" parent="1" edge="1">
          <mxGeometry relative="1" as="geometry">
            <mxPoint x="380" y="490.23" as="sourcePoint" />
            <mxPoint x="510" y="490.23" as="targetPoint" />
          </mxGeometry>
        </mxCell>
        <mxCell id="keUReCoGRjk8XPbMsIGI-52" value="&lt;font color=&quot;#6c8ebf&quot;&gt;op1_i&lt;/font&gt;" style="edgeLabel;html=1;align=center;verticalAlign=middle;resizable=0;points=[];" parent="keUReCoGRjk8XPbMsIGI-51" vertex="1" connectable="0">
          <mxGeometry x="0.2337" y="2" relative="1" as="geometry">
            <mxPoint x="-19" y="-7" as="offset" />
          </mxGeometry>
        </mxCell>
        <mxCell id="keUReCoGRjk8XPbMsIGI-53" style="edgeStyle=orthogonalEdgeStyle;rounded=0;orthogonalLoop=1;jettySize=auto;html=1;entryX=0;entryY=0.5;entryDx=0;entryDy=0;" parent="1" edge="1">
          <mxGeometry relative="1" as="geometry">
            <mxPoint x="380" y="528.23" as="sourcePoint" />
            <mxPoint x="510" y="528.23" as="targetPoint" />
          </mxGeometry>
        </mxCell>
        <mxCell id="keUReCoGRjk8XPbMsIGI-54" value="offset_i" style="edgeLabel;html=1;align=center;verticalAlign=middle;resizable=0;points=[];" parent="keUReCoGRjk8XPbMsIGI-53" vertex="1" connectable="0">
          <mxGeometry x="-0.0157" y="-2" relative="1" as="geometry">
            <mxPoint x="-3" y="-11" as="offset" />
          </mxGeometry>
        </mxCell>
        <mxCell id="keUReCoGRjk8XPbMsIGI-55" style="edgeStyle=orthogonalEdgeStyle;rounded=0;orthogonalLoop=1;jettySize=auto;html=1;exitX=1;exitY=0.5;exitDx=0;exitDy=0;entryX=0;entryY=0.5;entryDx=0;entryDy=0;fillColor=#d5e8d4;strokeColor=#82b366;" parent="1" edge="1">
          <mxGeometry relative="1" as="geometry">
            <mxPoint x="380" y="508.23" as="sourcePoint" />
            <mxPoint x="510" y="508.23" as="targetPoint" />
          </mxGeometry>
        </mxCell>
        <mxCell id="keUReCoGRjk8XPbMsIGI-56" value="&lt;font color=&quot;#82b366&quot;&gt;op2_i&lt;/font&gt;" style="edgeLabel;html=1;align=center;verticalAlign=middle;resizable=0;points=[];" parent="keUReCoGRjk8XPbMsIGI-55" vertex="1" connectable="0">
          <mxGeometry x="0.2337" y="2" relative="1" as="geometry">
            <mxPoint x="-19" y="-7" as="offset" />
          </mxGeometry>
        </mxCell>
        <mxCell id="keUReCoGRjk8XPbMsIGI-57" style="edgeStyle=orthogonalEdgeStyle;rounded=0;orthogonalLoop=1;jettySize=auto;html=1;entryX=0;entryY=0.5;entryDx=0;entryDy=0;fillColor=#f8cecc;strokeColor=#B85450;" parent="1" edge="1">
          <mxGeometry relative="1" as="geometry">
            <mxPoint x="380" y="548.23" as="sourcePoint" />
            <mxPoint x="510" y="548.23" as="targetPoint" />
          </mxGeometry>
        </mxCell>
        <mxCell id="keUReCoGRjk8XPbMsIGI-58" value="inst_i" style="edgeLabel;html=1;align=center;verticalAlign=middle;resizable=0;points=[];fontColor=#B85450;" parent="keUReCoGRjk8XPbMsIGI-57" vertex="1" connectable="0">
          <mxGeometry x="-0.0157" y="-2" relative="1" as="geometry">
            <mxPoint x="-3" y="-11" as="offset" />
          </mxGeometry>
        </mxCell>
        <mxCell id="keUReCoGRjk8XPbMsIGI-59" style="edgeStyle=orthogonalEdgeStyle;rounded=0;orthogonalLoop=1;jettySize=auto;html=1;entryX=0;entryY=0.5;entryDx=0;entryDy=0;fillColor=#f8cecc;strokeColor=#b85450;" parent="1" edge="1">
          <mxGeometry relative="1" as="geometry">
            <mxPoint x="380" y="569.23" as="sourcePoint" />
            <mxPoint x="510" y="569.23" as="targetPoint" />
          </mxGeometry>
        </mxCell>
        <mxCell id="keUReCoGRjk8XPbMsIGI-60" value="inst_addr_i" style="edgeLabel;html=1;align=center;verticalAlign=middle;resizable=0;points=[];fontColor=#B85450;" parent="keUReCoGRjk8XPbMsIGI-59" vertex="1" connectable="0">
          <mxGeometry x="-0.0157" y="-2" relative="1" as="geometry">
            <mxPoint x="-3" y="-10" as="offset" />
          </mxGeometry>
        </mxCell>
        <mxCell id="keUReCoGRjk8XPbMsIGI-61" style="edgeStyle=orthogonalEdgeStyle;rounded=0;orthogonalLoop=1;jettySize=auto;html=1;entryX=0;entryY=0.5;entryDx=0;entryDy=0;" parent="1" edge="1">
          <mxGeometry relative="1" as="geometry">
            <mxPoint x="380" y="598.23" as="sourcePoint" />
            <mxPoint x="510" y="598.23" as="targetPoint" />
          </mxGeometry>
        </mxCell>
        <mxCell id="keUReCoGRjk8XPbMsIGI-62" value="reg_wen_i" style="edgeLabel;html=1;align=center;verticalAlign=middle;resizable=0;points=[];" parent="keUReCoGRjk8XPbMsIGI-61" vertex="1" connectable="0">
          <mxGeometry x="-0.0157" y="-2" relative="1" as="geometry">
            <mxPoint x="-3" y="-10" as="offset" />
          </mxGeometry>
        </mxCell>
        <mxCell id="keUReCoGRjk8XPbMsIGI-63" style="edgeStyle=orthogonalEdgeStyle;rounded=0;orthogonalLoop=1;jettySize=auto;html=1;entryX=0;entryY=0.5;entryDx=0;entryDy=0;" parent="1" edge="1">
          <mxGeometry relative="1" as="geometry">
            <mxPoint x="380" y="618.23" as="sourcePoint" />
            <mxPoint x="510" y="618.23" as="targetPoint" />
          </mxGeometry>
        </mxCell>
        <mxCell id="keUReCoGRjk8XPbMsIGI-64" value="reg_waddr_i" style="edgeLabel;html=1;align=center;verticalAlign=middle;resizable=0;points=[];" parent="keUReCoGRjk8XPbMsIGI-63" vertex="1" connectable="0">
          <mxGeometry x="-0.0157" y="-2" relative="1" as="geometry">
            <mxPoint x="-3" y="-10" as="offset" />
          </mxGeometry>
        </mxCell>
        <mxCell id="keUReCoGRjk8XPbMsIGI-65" style="edgeStyle=orthogonalEdgeStyle;rounded=0;orthogonalLoop=1;jettySize=auto;html=1;entryX=0;entryY=0.5;entryDx=0;entryDy=0;" parent="1" edge="1">
          <mxGeometry relative="1" as="geometry">
            <mxPoint x="380" y="638.23" as="sourcePoint" />
            <mxPoint x="510" y="638.23" as="targetPoint" />
          </mxGeometry>
        </mxCell>
        <mxCell id="keUReCoGRjk8XPbMsIGI-66" value="csr_wen_i" style="edgeLabel;html=1;align=center;verticalAlign=middle;resizable=0;points=[];" parent="keUReCoGRjk8XPbMsIGI-65" vertex="1" connectable="0">
          <mxGeometry x="-0.0157" y="-2" relative="1" as="geometry">
            <mxPoint x="-3" y="-10" as="offset" />
          </mxGeometry>
        </mxCell>
        <mxCell id="keUReCoGRjk8XPbMsIGI-67" style="edgeStyle=orthogonalEdgeStyle;rounded=0;orthogonalLoop=1;jettySize=auto;html=1;entryX=0;entryY=0.5;entryDx=0;entryDy=0;" parent="1" edge="1">
          <mxGeometry relative="1" as="geometry">
            <mxPoint x="380" y="658.23" as="sourcePoint" />
            <mxPoint x="510" y="658.23" as="targetPoint" />
          </mxGeometry>
        </mxCell>
        <mxCell id="keUReCoGRjk8XPbMsIGI-68" value="csr_waddr_i" style="edgeLabel;html=1;align=center;verticalAlign=middle;resizable=0;points=[];" parent="keUReCoGRjk8XPbMsIGI-67" vertex="1" connectable="0">
          <mxGeometry x="-0.0157" y="-2" relative="1" as="geometry">
            <mxPoint x="-3" y="-10" as="offset" />
          </mxGeometry>
        </mxCell>
        <mxCell id="keUReCoGRjk8XPbMsIGI-69" style="edgeStyle=orthogonalEdgeStyle;rounded=0;orthogonalLoop=1;jettySize=auto;html=1;entryX=0;entryY=0.5;entryDx=0;entryDy=0;" parent="1" edge="1">
          <mxGeometry relative="1" as="geometry">
            <mxPoint x="380" y="678.23" as="sourcePoint" />
            <mxPoint x="510" y="678.23" as="targetPoint" />
          </mxGeometry>
        </mxCell>
        <mxCell id="keUReCoGRjk8XPbMsIGI-70" value="csr_wdata_i" style="edgeLabel;html=1;align=center;verticalAlign=middle;resizable=0;points=[];" parent="keUReCoGRjk8XPbMsIGI-69" vertex="1" connectable="0">
          <mxGeometry x="-0.0157" y="-2" relative="1" as="geometry">
            <mxPoint x="-3" y="-10" as="offset" />
          </mxGeometry>
        </mxCell>
        <mxCell id="Cx_R8YavA6_PTmJeuPWY-7" value="csr_reg" style="rounded=0;whiteSpace=wrap;html=1;" vertex="1" parent="1">
          <mxGeometry x="510" y="330" width="80" height="70" as="geometry" />
        </mxCell>
        <mxCell id="Cx_R8YavA6_PTmJeuPWY-8" style="edgeStyle=orthogonalEdgeStyle;rounded=0;orthogonalLoop=1;jettySize=auto;html=1;exitX=0.75;exitY=0;exitDx=0;exitDy=0;entryX=0.75;entryY=1;entryDx=0;entryDy=0;" edge="1" parent="1">
          <mxGeometry relative="1" as="geometry">
            <mxPoint x="519" y="480" as="sourcePoint" />
            <mxPoint x="519" y="400" as="targetPoint" />
          </mxGeometry>
        </mxCell>
        <mxCell id="Cx_R8YavA6_PTmJeuPWY-9" value="csr_wen_o" style="edgeLabel;html=1;align=center;verticalAlign=middle;resizable=0;points=[];" vertex="1" connectable="0" parent="Cx_R8YavA6_PTmJeuPWY-8">
          <mxGeometry x="-0.0778" y="-1" relative="1" as="geometry">
            <mxPoint x="-1" y="-17" as="offset" />
          </mxGeometry>
        </mxCell>
        <mxCell id="Cx_R8YavA6_PTmJeuPWY-12" style="edgeStyle=orthogonalEdgeStyle;rounded=0;orthogonalLoop=1;jettySize=auto;html=1;exitX=0.75;exitY=0;exitDx=0;exitDy=0;entryX=0.75;entryY=1;entryDx=0;entryDy=0;endArrow=none;endFill=0;startArrow=classic;startFill=1;" edge="1" parent="1">
          <mxGeometry relative="1" as="geometry">
            <mxPoint x="566.57" y="770" as="sourcePoint" />
            <mxPoint x="566.57" y="690" as="targetPoint" />
          </mxGeometry>
        </mxCell>
        <mxCell id="Cx_R8YavA6_PTmJeuPWY-13" value="mem_waddr_o" style="edgeLabel;html=1;align=center;verticalAlign=middle;resizable=0;points=[];" vertex="1" connectable="0" parent="Cx_R8YavA6_PTmJeuPWY-12">
          <mxGeometry x="-0.0778" y="-1" relative="1" as="geometry">
            <mxPoint x="-1" y="-7" as="offset" />
          </mxGeometry>
        </mxCell>
        <mxCell id="Cx_R8YavA6_PTmJeuPWY-14" value="gp_reg" style="rounded=0;whiteSpace=wrap;html=1;" vertex="1" parent="1">
          <mxGeometry x="610" y="330" width="80" height="70" as="geometry" />
        </mxCell>
        <mxCell id="Cx_R8YavA6_PTmJeuPWY-15" style="edgeStyle=orthogonalEdgeStyle;rounded=0;orthogonalLoop=1;jettySize=auto;html=1;exitX=0.75;exitY=0;exitDx=0;exitDy=0;entryX=0.75;entryY=1;entryDx=0;entryDy=0;startArrow=classic;startFill=1;endArrow=none;endFill=0;" edge="1" parent="1">
          <mxGeometry relative="1" as="geometry">
            <mxPoint x="529.57" y="770" as="sourcePoint" />
            <mxPoint x="529.57" y="690" as="targetPoint" />
          </mxGeometry>
        </mxCell>
        <mxCell id="Cx_R8YavA6_PTmJeuPWY-16" value="mem_wen_o" style="edgeLabel;html=1;align=center;verticalAlign=middle;resizable=0;points=[];" vertex="1" connectable="0" parent="Cx_R8YavA6_PTmJeuPWY-15">
          <mxGeometry x="-0.0778" y="-1" relative="1" as="geometry">
            <mxPoint x="-1" y="-25" as="offset" />
          </mxGeometry>
        </mxCell>
        <mxCell id="Cx_R8YavA6_PTmJeuPWY-17" style="edgeStyle=orthogonalEdgeStyle;rounded=0;orthogonalLoop=1;jettySize=auto;html=1;exitX=0.75;exitY=0;exitDx=0;exitDy=0;entryX=0.75;entryY=1;entryDx=0;entryDy=0;endArrow=none;endFill=0;startArrow=classic;startFill=1;" edge="1" parent="1">
          <mxGeometry relative="1" as="geometry">
            <mxPoint x="606.57" y="770" as="sourcePoint" />
            <mxPoint x="606.57" y="690" as="targetPoint" />
          </mxGeometry>
        </mxCell>
        <mxCell id="Cx_R8YavA6_PTmJeuPWY-18" value="mem_wdata_o" style="edgeLabel;html=1;align=center;verticalAlign=middle;resizable=0;points=[];" vertex="1" connectable="0" parent="Cx_R8YavA6_PTmJeuPWY-17">
          <mxGeometry x="-0.0778" y="-1" relative="1" as="geometry">
            <mxPoint x="-5" y="15" as="offset" />
          </mxGeometry>
        </mxCell>
        <mxCell id="Cx_R8YavA6_PTmJeuPWY-3" style="edgeStyle=orthogonalEdgeStyle;rounded=0;orthogonalLoop=1;jettySize=auto;html=1;exitX=0.75;exitY=0;exitDx=0;exitDy=0;entryX=0.75;entryY=1;entryDx=0;entryDy=0;" edge="1" parent="1">
          <mxGeometry relative="1" as="geometry">
            <mxPoint x="548" y="480" as="sourcePoint" />
            <mxPoint x="548" y="400" as="targetPoint" />
          </mxGeometry>
        </mxCell>
        <mxCell id="Cx_R8YavA6_PTmJeuPWY-4" value="csr_waddr_o" style="edgeLabel;html=1;align=center;verticalAlign=middle;resizable=0;points=[];" vertex="1" connectable="0" parent="Cx_R8YavA6_PTmJeuPWY-3">
          <mxGeometry x="-0.0778" y="-1" relative="1" as="geometry">
            <mxPoint x="-2" y="2" as="offset" />
          </mxGeometry>
        </mxCell>
        <mxCell id="Cx_R8YavA6_PTmJeuPWY-10" style="edgeStyle=orthogonalEdgeStyle;rounded=0;orthogonalLoop=1;jettySize=auto;html=1;exitX=0.75;exitY=0;exitDx=0;exitDy=0;entryX=0.75;entryY=1;entryDx=0;entryDy=0;" edge="1" parent="1">
          <mxGeometry relative="1" as="geometry">
            <mxPoint x="579" y="480" as="sourcePoint" />
            <mxPoint x="579" y="400" as="targetPoint" />
          </mxGeometry>
        </mxCell>
        <mxCell id="Cx_R8YavA6_PTmJeuPWY-11" value="csr_wdata_o" style="edgeLabel;html=1;align=center;verticalAlign=middle;resizable=0;points=[];" vertex="1" connectable="0" parent="Cx_R8YavA6_PTmJeuPWY-10">
          <mxGeometry x="-0.0778" y="-1" relative="1" as="geometry">
            <mxPoint x="-1" y="21" as="offset" />
          </mxGeometry>
        </mxCell>
        <mxCell id="Cx_R8YavA6_PTmJeuPWY-25" style="edgeStyle=orthogonalEdgeStyle;rounded=0;orthogonalLoop=1;jettySize=auto;html=1;exitX=0.75;exitY=0;exitDx=0;exitDy=0;entryX=0.75;entryY=1;entryDx=0;entryDy=0;" edge="1" parent="1">
          <mxGeometry relative="1" as="geometry">
            <mxPoint x="620.3199999999999" y="480" as="sourcePoint" />
            <mxPoint x="620.3199999999999" y="400" as="targetPoint" />
          </mxGeometry>
        </mxCell>
        <mxCell id="Cx_R8YavA6_PTmJeuPWY-26" value="reg_wen_o" style="edgeLabel;html=1;align=center;verticalAlign=middle;resizable=0;points=[];" vertex="1" connectable="0" parent="Cx_R8YavA6_PTmJeuPWY-25">
          <mxGeometry x="-0.0778" y="-1" relative="1" as="geometry">
            <mxPoint x="-1" y="-17" as="offset" />
          </mxGeometry>
        </mxCell>
        <mxCell id="Cx_R8YavA6_PTmJeuPWY-27" style="edgeStyle=orthogonalEdgeStyle;rounded=0;orthogonalLoop=1;jettySize=auto;html=1;exitX=0.75;exitY=0;exitDx=0;exitDy=0;entryX=0.75;entryY=1;entryDx=0;entryDy=0;" edge="1" parent="1">
          <mxGeometry relative="1" as="geometry">
            <mxPoint x="649.3199999999999" y="480" as="sourcePoint" />
            <mxPoint x="649.3199999999999" y="400" as="targetPoint" />
          </mxGeometry>
        </mxCell>
        <mxCell id="Cx_R8YavA6_PTmJeuPWY-28" value="reg_waddr_o" style="edgeLabel;html=1;align=center;verticalAlign=middle;resizable=0;points=[];" vertex="1" connectable="0" parent="Cx_R8YavA6_PTmJeuPWY-27">
          <mxGeometry x="-0.0778" y="-1" relative="1" as="geometry">
            <mxPoint x="-3" y="2" as="offset" />
          </mxGeometry>
        </mxCell>
        <mxCell id="Cx_R8YavA6_PTmJeuPWY-29" style="edgeStyle=orthogonalEdgeStyle;rounded=0;orthogonalLoop=1;jettySize=auto;html=1;exitX=0.75;exitY=0;exitDx=0;exitDy=0;entryX=0.75;entryY=1;entryDx=0;entryDy=0;" edge="1" parent="1">
          <mxGeometry relative="1" as="geometry">
            <mxPoint x="680.3199999999999" y="480" as="sourcePoint" />
            <mxPoint x="680.3199999999999" y="400" as="targetPoint" />
          </mxGeometry>
        </mxCell>
        <mxCell id="Cx_R8YavA6_PTmJeuPWY-30" value="reg_wdata_o" style="edgeLabel;html=1;align=center;verticalAlign=middle;resizable=0;points=[];" vertex="1" connectable="0" parent="Cx_R8YavA6_PTmJeuPWY-29">
          <mxGeometry x="-0.0778" y="-1" relative="1" as="geometry">
            <mxPoint x="-1" y="21" as="offset" />
          </mxGeometry>
        </mxCell>
        <mxCell id="Cx_R8YavA6_PTmJeuPWY-31" value="RIB" style="rounded=0;whiteSpace=wrap;html=1;" vertex="1" parent="1">
          <mxGeometry x="510" y="770" width="180" height="70" as="geometry" />
        </mxCell>
        <mxCell id="Cx_R8YavA6_PTmJeuPWY-33" style="edgeStyle=orthogonalEdgeStyle;rounded=0;orthogonalLoop=1;jettySize=auto;html=1;exitX=0.75;exitY=0;exitDx=0;exitDy=0;entryX=0.75;entryY=1;entryDx=0;entryDy=0;endArrow=none;endFill=0;startArrow=classic;startFill=1;" edge="1" parent="1">
          <mxGeometry relative="1" as="geometry">
            <mxPoint x="640" y="770" as="sourcePoint" />
            <mxPoint x="640" y="690" as="targetPoint" />
          </mxGeometry>
        </mxCell>
        <mxCell id="Cx_R8YavA6_PTmJeuPWY-34" value="mem_rdata_o" style="edgeLabel;html=1;align=center;verticalAlign=middle;resizable=0;points=[];" vertex="1" connectable="0" parent="Cx_R8YavA6_PTmJeuPWY-33">
          <mxGeometry x="-0.0778" y="-1" relative="1" as="geometry">
            <mxPoint y="-25" as="offset" />
          </mxGeometry>
        </mxCell>
        <mxCell id="Cx_R8YavA6_PTmJeuPWY-35" style="edgeStyle=orthogonalEdgeStyle;rounded=0;orthogonalLoop=1;jettySize=auto;html=1;exitX=0.75;exitY=0;exitDx=0;exitDy=0;entryX=0.75;entryY=1;entryDx=0;entryDy=0;endArrow=classic;endFill=1;startArrow=none;startFill=0;" edge="1" parent="1">
          <mxGeometry relative="1" as="geometry">
            <mxPoint x="679" y="770" as="sourcePoint" />
            <mxPoint x="679" y="690" as="targetPoint" />
          </mxGeometry>
        </mxCell>
        <mxCell id="Cx_R8YavA6_PTmJeuPWY-36" value="mem_rdata_i" style="edgeLabel;html=1;align=center;verticalAlign=middle;resizable=0;points=[];" vertex="1" connectable="0" parent="Cx_R8YavA6_PTmJeuPWY-35">
          <mxGeometry x="-0.0778" y="-1" relative="1" as="geometry">
            <mxPoint x="-2" y="15" as="offset" />
          </mxGeometry>
        </mxCell>
        <mxCell id="Cx_R8YavA6_PTmJeuPWY-37" value="alu" style="rounded=0;whiteSpace=wrap;html=1;" vertex="1" parent="1">
          <mxGeometry x="780" y="480" width="70" height="120" as="geometry" />
        </mxCell>
        <mxCell id="Cx_R8YavA6_PTmJeuPWY-38" style="edgeStyle=orthogonalEdgeStyle;rounded=0;orthogonalLoop=1;jettySize=auto;html=1;exitX=1;exitY=0.25;exitDx=0;exitDy=0;entryX=0;entryY=0.437;entryDx=0;entryDy=0;entryPerimeter=0;" edge="1" parent="1">
          <mxGeometry relative="1" as="geometry">
            <mxPoint x="690" y="500.06" as="sourcePoint" />
            <mxPoint x="780" y="500.00000000000006" as="targetPoint" />
            <Array as="points">
              <mxPoint x="735" y="499.56" />
              <mxPoint x="735" y="499.56" />
            </Array>
          </mxGeometry>
        </mxCell>
        <mxCell id="Cx_R8YavA6_PTmJeuPWY-39" value="alu_data1_o" style="edgeLabel;html=1;align=center;verticalAlign=middle;resizable=0;points=[];" vertex="1" connectable="0" parent="Cx_R8YavA6_PTmJeuPWY-38">
          <mxGeometry x="0.0841" relative="1" as="geometry">
            <mxPoint x="-2" y="-8" as="offset" />
          </mxGeometry>
        </mxCell>
        <mxCell id="Cx_R8YavA6_PTmJeuPWY-40" style="edgeStyle=orthogonalEdgeStyle;rounded=0;orthogonalLoop=1;jettySize=auto;html=1;exitX=1;exitY=0.25;exitDx=0;exitDy=0;entryX=0;entryY=0.437;entryDx=0;entryDy=0;entryPerimeter=0;" edge="1" parent="1">
          <mxGeometry relative="1" as="geometry">
            <mxPoint x="690" y="530.06" as="sourcePoint" />
            <mxPoint x="780" y="530" as="targetPoint" />
            <Array as="points">
              <mxPoint x="735" y="529.56" />
              <mxPoint x="735" y="529.56" />
            </Array>
          </mxGeometry>
        </mxCell>
        <mxCell id="Cx_R8YavA6_PTmJeuPWY-41" value="alu_data2_o" style="edgeLabel;html=1;align=center;verticalAlign=middle;resizable=0;points=[];" vertex="1" connectable="0" parent="Cx_R8YavA6_PTmJeuPWY-40">
          <mxGeometry x="0.0841" relative="1" as="geometry">
            <mxPoint x="-2" y="-8" as="offset" />
          </mxGeometry>
        </mxCell>
        <mxCell id="Cx_R8YavA6_PTmJeuPWY-42" style="edgeStyle=orthogonalEdgeStyle;rounded=0;orthogonalLoop=1;jettySize=auto;html=1;exitX=1;exitY=0.25;exitDx=0;exitDy=0;entryX=0;entryY=0.437;entryDx=0;entryDy=0;entryPerimeter=0;" edge="1" parent="1">
          <mxGeometry relative="1" as="geometry">
            <mxPoint x="690" y="560.06" as="sourcePoint" />
            <mxPoint x="780" y="560" as="targetPoint" />
            <Array as="points">
              <mxPoint x="735" y="559.56" />
              <mxPoint x="735" y="559.56" />
            </Array>
          </mxGeometry>
        </mxCell>
        <mxCell id="Cx_R8YavA6_PTmJeuPWY-43" value="alu_op_o" style="edgeLabel;html=1;align=center;verticalAlign=middle;resizable=0;points=[];" vertex="1" connectable="0" parent="Cx_R8YavA6_PTmJeuPWY-42">
          <mxGeometry x="0.0841" relative="1" as="geometry">
            <mxPoint x="-4" y="-8" as="offset" />
          </mxGeometry>
        </mxCell>
        <mxCell id="Cx_R8YavA6_PTmJeuPWY-44" style="edgeStyle=orthogonalEdgeStyle;rounded=0;orthogonalLoop=1;jettySize=auto;html=1;" edge="1" parent="1">
          <mxGeometry relative="1" as="geometry">
            <mxPoint x="780.0000000000001" y="587.0107526881719" as="sourcePoint" />
            <mxPoint x="690" y="587" as="targetPoint" />
          </mxGeometry>
        </mxCell>
        <mxCell id="Cx_R8YavA6_PTmJeuPWY-45" value="alu_data_i" style="edgeLabel;html=1;align=center;verticalAlign=middle;resizable=0;points=[];" vertex="1" connectable="0" parent="Cx_R8YavA6_PTmJeuPWY-44">
          <mxGeometry x="-0.114" y="1" relative="1" as="geometry">
            <mxPoint x="-5" y="-9" as="offset" />
          </mxGeometry>
        </mxCell>
        <mxCell id="Cx_R8YavA6_PTmJeuPWY-48" value="ctrl" style="rounded=0;whiteSpace=wrap;html=1;" vertex="1" parent="1">
          <mxGeometry x="780" y="620" width="70" height="70" as="geometry" />
        </mxCell>
        <mxCell id="Cx_R8YavA6_PTmJeuPWY-55" style="edgeStyle=orthogonalEdgeStyle;rounded=0;orthogonalLoop=1;jettySize=auto;html=1;exitX=1;exitY=0.75;exitDx=0;exitDy=0;entryX=0;entryY=0.25;entryDx=0;entryDy=0;" edge="1" parent="1">
          <mxGeometry relative="1" as="geometry">
            <mxPoint x="690" y="670" as="sourcePoint" />
            <mxPoint x="780" y="670" as="targetPoint" />
          </mxGeometry>
        </mxCell>
        <mxCell id="Cx_R8YavA6_PTmJeuPWY-56" value="jump_addr_o" style="edgeLabel;html=1;align=center;verticalAlign=middle;resizable=0;points=[];" vertex="1" connectable="0" parent="Cx_R8YavA6_PTmJeuPWY-55">
          <mxGeometry x="-0.0666" y="1" relative="1" as="geometry">
            <mxPoint y="-9" as="offset" />
          </mxGeometry>
        </mxCell>
      </root>
    </mxGraphModel>
  </diagram>
</mxfile>
